<svg width="32" height="32" viewBox="0 0 32 32" fill="none" xmlns="http://www.w3.org/2000/svg">
<circle cx="16" cy="16" r="15.25" stroke="#999999" stroke-width="1.5"/>
<path d="M16 10.0825L12.3333 13.7276C11.6082 14.4485 11.1144 15.3669 10.9144 16.3668C10.7144 17.3667 10.8171 18.4031 11.2096 19.345C11.602 20.2869 12.2666 21.0919 13.1193 21.6582C13.972 22.2246 14.9745 22.5269 16 22.5269C17.0255 22.5269 18.028 22.2246 18.8807 21.6582C19.7334 21.0919 20.398 20.2869 20.7904 19.345C21.1829 18.4031 21.2856 17.3667 21.0856 16.3668C20.8856 15.3669 20.3918 14.4485 19.6667 13.7276L16 10.0825ZM16 8L20.7141 12.6863C21.6464 13.6132 22.2813 14.7941 22.5386 16.0797C22.7958 17.3653 22.6638 18.6978 22.1592 19.9088C21.6546 21.1198 20.8001 22.1549 19.7038 22.8831C18.6075 23.6113 17.3185 24 16 24C14.6815 24 13.3925 23.6113 12.2962 22.8831C11.1999 22.1549 10.3454 21.1198 9.84081 19.9088C9.33622 18.6978 9.2042 17.3653 9.46142 16.0797C9.71865 14.7941 10.3536 13.6132 11.2859 12.6863L16 8V8ZM16 21.0545V13.6907C16.9823 13.6907 17.9243 14.0787 18.6189 14.7691C19.3135 15.4596 19.7037 16.3961 19.7037 17.3726C19.7037 18.3491 19.3135 19.2856 18.6189 19.9761C17.9243 20.6666 16.9823 21.0545 16 21.0545V21.0545Z" fill="#999999"/>
</svg>
