<svg width="24" height="24" viewBox="0 0 24 24" fill="none" xmlns="http://www.w3.org/2000/svg">
<path d="M18 6.28537C18 6.12842 17.8754 6 17.7232 6L15.4394 6.0107L12 10.2378L8.56401 6.01427L6.27682 6.00357C6.12457 6.00357 6 6.12842 6 6.28894C6 6.35672 6.02422 6.42093 6.06574 6.47444L10.5675 12.0036L6.06574 17.5291C6.02393 17.5814 6.00073 17.6469 6 17.7146C6 17.8716 6.12457 18 6.27682 18L8.56401 17.9893L12 13.7622L15.436 17.9857L17.7197 17.9964C17.872 17.9964 17.9965 17.8716 17.9965 17.7111C17.9965 17.6433 17.9723 17.5791 17.9308 17.5256L13.436 12L17.9377 6.47087C17.9792 6.42093 18 6.35315 18 6.28537Z" fill="#05B9FF"/>
</svg>
