<svg width="16" height="16" viewBox="0 0 16 16" fill="none" xmlns="http://www.w3.org/2000/svg">
<path d="M16 0.380499C16 0.171225 15.8339 0 15.6309 0L12.5859 0.0142696L8 5.65042L3.41869 0.0190261L0.369089 0.00475653C0.16609 0.00475653 0 0.171225 0 0.385256C0 0.475625 0.032295 0.561237 0.0876583 0.632581L6.08997 8.00476L0.0876583 15.3722C0.0319091 15.4419 0.000976388 15.5292 0 15.6195C0 15.8288 0.16609 16 0.369089 16L3.41869 15.9857L8 10.3496L12.5813 15.981L15.6263 15.9952C15.8293 15.9952 15.9954 15.8288 15.9954 15.6147C15.9954 15.5244 15.9631 15.4388 15.9077 15.3674L9.91465 8L15.917 0.627825C15.9723 0.561237 16 0.470868 16 0.380499Z" fill="#05B9FF"/>
</svg>
