<svg width="14" height="14" viewBox="0 0 14 14" fill="none" xmlns="http://www.w3.org/2000/svg">
<path d="M11.0208 10.078L13.8762 12.9327L12.9328 13.876L10.0782 11.0207C9.01599 11.8722 7.69483 12.3353 6.3335 12.3334C3.0215 12.3334 0.333496 9.64537 0.333496 6.33337C0.333496 3.02137 3.0215 0.333374 6.3335 0.333374C9.6455 0.333374 12.3335 3.02137 12.3335 6.33337C12.3354 7.69471 11.8723 9.01587 11.0208 10.078ZM9.6835 9.58337C10.5296 8.7133 11.0021 7.54699 11.0002 6.33337C11.0002 3.75471 8.9115 1.66671 6.3335 1.66671C3.75483 1.66671 1.66683 3.75471 1.66683 6.33337C1.66683 8.91137 3.75483 11 6.3335 11C7.54712 11.002 8.71342 10.5294 9.5835 9.68337L9.6835 9.58337Z" fill="white"/>
</svg>
