<svg width="24" height="24" viewBox="0 0 24 24" fill="none" xmlns="http://www.w3.org/2000/svg">
<path fill-rule="evenodd" clip-rule="evenodd" d="M2 12C2 6.47715 6.47715 2 12 2C17.5228 2 22 6.47715 22 12C22 17.5228 17.5228 22 12 22C6.47715 22 2 17.5228 2 12ZM19.8642 10.9655H4.13582C4.64272 7.07412 7.97042 4.06897 12 4.06897C16.0296 4.06897 19.3573 7.07412 19.8642 10.9655ZM19.8642 13.0345C19.3573 16.9259 16.0296 19.931 12 19.931C7.97042 19.931 4.64272 16.9259 4.13582 13.0345H19.8642Z" fill="#0F0F0F"/>
<path fill-rule="evenodd" clip-rule="evenodd" d="M10.6858 6.03178C10.1791 7.50825 9.84615 9.61802 9.84615 12C9.84615 14.382 10.1791 16.4918 10.6858 17.9682C10.9404 18.7099 11.2209 19.2391 11.4853 19.565C11.7494 19.8906 11.9247 19.931 12 19.931C12.0753 19.931 12.2506 19.8906 12.5147 19.565C12.7791 19.2391 13.0596 18.7099 13.3142 17.9682C13.8209 16.4918 14.1538 14.382 14.1538 12C14.1538 9.61802 13.8209 7.50825 13.3142 6.03178C13.0596 5.2901 12.7791 4.76087 12.5147 4.43501C12.2506 4.10944 12.0753 4.06897 12 4.06897C11.9247 4.06897 11.7494 4.10944 11.4853 4.43501C11.2209 4.76087 10.9404 5.2901 10.6858 6.03178ZM10.1194 3.04307C10.5915 2.46127 11.2256 2 12 2C12.7744 2 13.4085 2.46127 13.8806 3.04307C14.3524 3.62457 14.735 4.40831 15.0373 5.28906C15.6442 7.05748 16 9.43046 16 12C16 14.5695 15.6442 16.9425 15.0373 18.7109C14.735 19.5917 14.3524 20.3754 13.8806 20.9569C13.4085 21.5387 12.7744 22 12 22C11.2256 22 10.5915 21.5387 10.1194 20.9569C9.64756 20.3754 9.26502 19.5917 8.96274 18.7109C8.35583 16.9425 8 14.5695 8 12C8 9.43046 8.35583 7.05748 8.96274 5.28906C9.26502 4.40831 9.64756 3.62457 10.1194 3.04307Z" fill="#0F0F0F"/>
<path fill-rule="evenodd" clip-rule="evenodd" d="M2 12C2 11.4477 2.46315 11 3.03448 11H20.9655C21.5368 11 22 11.4477 22 12C22 12.5523 21.5368 13 20.9655 13H3.03448C2.46315 13 2 12.5523 2 12Z" fill="#0F0F0F"/>
</svg>
